<svg width="75" height="75" viewBox="0 0 75 75" fill="none" xmlns="http://www.w3.org/2000/svg">
<g id="Empty Cart">
<g id="Group_12290">
<circle id="Ellipse_1204" cx="37.5" cy="37.5" r="37.5" fill="#DDF2ED"/>
<path id="Rectangle" fill-rule="evenodd" clip-rule="evenodd" d="M27.1277 28.1915H47.3405L45.4788 30.5851L48.1384 32.4468L27.1277 32.1808L28.9894 30.3191L27.1277 28.1915Z" fill="#FFBD4C"/>
<g id="Line">
<path fill-rule="evenodd" clip-rule="evenodd" d="M19.5004 52.0068H25.8391Z" fill="#FFBD4C"/>
<path d="M19.5004 52.0068H25.8391" stroke="#FFBD4C" stroke-linecap="round"/>
</g>
<g id="Line_2">
<path fill-rule="evenodd" clip-rule="evenodd" d="M15.5366 52.0068H17.5Z" fill="#FFBD4C"/>
<path d="M15.5366 52.0068H17.5" stroke="#FFBD4C" stroke-linecap="round"/>
</g>
<path id="Line 4" fill-rule="evenodd" clip-rule="evenodd" d="M60.1447 51.2567C59.7305 51.2567 59.3947 51.5925 59.3947 52.0067C59.3947 52.4209 59.7305 52.7567 60.1447 52.7567H61.0063C61.4205 52.7567 61.7563 52.4209 61.7563 52.0067C61.7563 51.5925 61.4205 51.2567 61.0063 51.2567H60.1447ZM50.0002 51.2567C49.586 51.2567 49.2502 51.5925 49.2502 52.0067C49.2502 52.421 49.586 52.7567 50.0002 52.7567H56.7285C57.1427 52.7567 57.4785 52.421 57.4785 52.0067C57.4785 51.5925 57.1427 51.2567 56.7285 51.2567H50.0002Z" fill="#FFBD4C"/>
<g id="bag">
<path fill-rule="evenodd" clip-rule="evenodd" d="M26.4997 45.1286V32.9114C26.4997 32.4081 26.9013 32.0001 27.3966 32.0001H47.9157C48.2382 32.0001 48.4997 32.2721 48.4997 32.6076V54.7849C48.4997 55.456 47.9768 56.0001 47.3317 56.0001H27.6677C27.0226 56.0001 26.4997 55.456 26.4997 54.7849V50.2445V49.0127M26.2499 48V46.5V48Z" fill="white"/>
<path d="M25.9997 45.1286C25.9997 45.4048 26.2236 45.6286 26.4997 45.6286C26.7759 45.6286 26.9997 45.4048 26.9997 45.1286H25.9997ZM26.9997 49.0127C26.9997 48.7366 26.7759 48.5127 26.4997 48.5127C26.2236 48.5127 25.9997 48.7366 25.9997 49.0127H26.9997ZM25.7499 48C25.7499 48.2762 25.9738 48.5 26.2499 48.5C26.5261 48.5 26.7499 48.2762 26.7499 48H25.7499ZM26.7499 46.5C26.7499 46.2239 26.5261 46 26.2499 46C25.9738 46 25.7499 46.2239 25.7499 46.5H26.7499ZM26.9997 45.1286V32.9115H25.9997V45.1286H26.9997ZM26.9997 32.9115C26.9997 32.6766 27.1849 32.5001 27.3966 32.5001V31.5001C26.6176 31.5001 25.9997 32.1396 25.9997 32.9115H26.9997ZM27.3966 32.5001H47.9157V31.5001H27.3966V32.5001ZM47.9157 32.5001C47.9436 32.5001 47.9997 32.5294 47.9997 32.6077H48.9997C48.9997 32.0148 48.5329 31.5001 47.9157 31.5001V32.5001ZM47.9997 32.6077V54.7849H48.9997V32.6077H47.9997ZM47.9997 54.7849C47.9997 55.1987 47.6822 55.5001 47.3317 55.5001V56.5001C48.2714 56.5001 48.9997 55.7133 48.9997 54.7849H47.9997ZM47.3317 55.5001H27.6677V56.5001H47.3317V55.5001ZM27.6677 55.5001C27.3173 55.5001 26.9997 55.1987 26.9997 54.7849H25.9997C25.9997 55.7133 26.728 56.5001 27.6677 56.5001V55.5001ZM26.9997 54.7849V50.2445H25.9997V54.7849H26.9997ZM26.9997 50.2445V49.0127H25.9997V50.2445H26.9997ZM26.7499 48V46.5H25.7499V48H26.7499Z" fill="#535C7D"/>
</g>
<path id="Rectangle_2" d="M27 32.0001V28.5715C27 28.2559 27.2353 28.0001 27.5256 28.0001L46.9744 28.0001C47.2647 28.0001 47.5 28.2559 47.5 28.5715V32.0001" stroke="#535C7D"/>
<ellipse id="Oval" cx="32.2499" cy="37.5" rx="1.25" ry="1" fill="white" stroke="#FFBD4C"/>
<ellipse id="Oval_2" cx="42.2499" cy="37.5" rx="1.25" ry="1" fill="white" stroke="#FFBD4C"/>
<path id="Oval_3" d="M42.0001 38.6702C42.0001 40.0509 39.8574 42.0213 37.2341 42.0213C34.6107 42.0213 32.5001 40.0509 32.5001 38.6702" stroke="#FFBD4C" stroke-linecap="round"/>
<path id="Path 3" d="M27.3752 28.1915L28.5565 29.6225C28.9314 30.0768 28.8345 30.7551 28.3473 31.0862L27.1277 31.9149" stroke="#535C7D" stroke-linecap="round"/>
<path id="Path 3_2" d="M47.3405 28.1915L46.0108 29.6098C45.5914 30.0572 45.6698 30.7734 46.1762 31.1194L47.3405 31.9149" stroke="#535C7D" stroke-linecap="round"/>
<path id="lines" fill-rule="evenodd" clip-rule="evenodd" d="M37.2495 18.2501C37.9399 18.2501 38.4995 18.8097 38.4995 19.5001V24.5001C38.4995 25.1904 37.9399 25.7501 37.2495 25.7501C36.5592 25.7501 35.9995 25.1904 35.9995 24.5001V19.5001C35.9995 18.8097 36.5592 18.2501 37.2495 18.2501ZM45.8837 20.1162C45.3956 19.628 44.6041 19.628 44.116 20.1162L40.616 23.6162C40.1278 24.1043 40.1278 24.8958 40.616 25.3839C41.1041 25.8721 41.8956 25.8721 42.3837 25.3839L45.8837 21.8839C46.3719 21.3958 46.3719 20.6043 45.8837 20.1162ZM30.3835 20.1162C29.8953 19.628 29.1038 19.628 28.6157 20.1162C28.1275 20.6043 28.1275 21.3958 28.6157 21.8839L32.1157 25.3839C32.6038 25.8721 33.3953 25.8721 33.8835 25.3839C34.3716 24.8958 34.3716 24.1043 33.8835 23.6162L30.3835 20.1162Z" fill="#535C7D"/>
<circle id="Ellipse_1205" cx="61.5982" cy="26.166" r="2.0305" fill="white"/>
<circle id="Ellipse_1206" cx="66.4332" cy="20.558" r="2.8045" fill="white"/>
<circle id="Ellipse_1207" cx="59.5673" cy="19.3005" r="0.7735" fill="white"/>
</g>
</g>
</svg>
