<svg width="74" height="74" viewBox="0 0 74 74" fill="none" xmlns="http://www.w3.org/2000/svg">
<circle cx="37" cy="37" r="37" fill="#DDF2ED"/>
<path fill-rule="evenodd" clip-rule="evenodd" d="M49.3126 27.304C49.2685 27.5973 49.4734 27.8705 49.7704 27.9141C55.0777 28.6932 56.7531 35.4147 52.5164 38.5675L40.7056 47.2022L36.7032 41.8775L37.3306 40.9105L40.6077 45.2705C40.7873 45.5095 41.1275 45.5574 41.3674 45.3821L43.1703 44.064C43.4117 43.8876 43.4625 43.5512 43.284 43.3128C43.1054 43.0744 42.765 43.0242 42.5237 43.2005L41.157 44.1998L37.9578 39.9437L38.6558 38.8679C41.1899 34.8883 37.9208 29.9024 33.4006 30.2965C34.1828 28.8113 35.7391 28.0263 37.388 28.2685C38.8963 28.4899 39.6317 29.4131 40.6171 31.2668L41.143 32.2788C41.8315 33.6036 43.6295 33.8674 44.6778 32.7978C44.8009 32.6722 44.9223 32.5468 45.0425 32.4227L45.0429 32.4223C46.403 31.018 47.6129 29.7688 49.4507 30.0392C52.8448 30.5374 53.9153 34.837 51.2082 36.8515L44.3996 41.8292C44.1582 42.0057 44.1074 42.3419 44.2859 42.5804C44.4646 42.819 44.8051 42.8689 45.0462 42.6927L51.8585 37.7122C55.3456 35.1173 53.9539 29.6143 49.6105 28.9767C47.2302 28.6279 45.7536 30.1444 44.1909 31.7492C44.0933 31.8495 43.9954 31.95 43.8969 32.0505C43.368 32.5902 42.4588 32.4591 42.1101 31.7882C41.9537 31.5121 41.8033 31.2247 41.6512 30.9341L41.6512 30.9341C40.7909 29.2903 39.879 27.5482 37.5477 27.206C33.2106 26.5697 30.2529 31.4331 32.8261 34.9181L35.2513 38.1445L34.624 39.1114C34.5204 38.9736 32.0499 35.6868 31.9483 35.5515C28.8354 31.3356 32.3789 25.3603 37.7076 26.1434C40.1519 26.5022 42.106 28.2687 42.6859 30.6437C42.8003 31.1121 43.4356 31.2052 43.6828 30.79C44.5409 29.3486 45.9815 28.3233 47.6352 27.977C47.9289 27.9156 48.1165 27.6304 48.0543 27.3403C47.9921 27.0501 47.7035 26.8648 47.4098 26.9262C45.8287 27.2573 44.4128 28.1142 43.3938 29.3321C42.4459 27.0727 40.3752 25.4491 37.8673 25.081C33.269 24.4064 29.6765 28.0518 29.6892 32.0865C29.198 32.6148 28.8107 33.2363 28.5531 33.9061C25.4445 30.8348 19.8792 32.3281 19.0097 36.8432C18.9536 37.1346 19.1471 37.4158 19.4421 37.4712C19.7367 37.5265 20.0215 37.3354 20.0777 37.044C20.8421 33.0751 26.0586 32.0332 28.3525 35.343C28.6279 35.7403 29.2554 35.6046 29.337 35.1294C29.4264 34.6082 29.6117 34.1031 29.8771 33.6426C30.0036 34.1687 30.1946 34.6842 30.4487 35.1802C30.3549 35.3801 30.2767 35.5612 30.2063 35.7244C29.9206 36.3864 29.7626 36.7525 29.2086 36.8728C28.8355 36.9534 28.5431 36.847 28.2569 36.6208C28.0623 36.4669 27.8598 36.2871 27.6469 36.0981C26.6816 35.2412 25.5023 34.1942 23.8831 34.5127C20.745 35.1301 20.0893 39.1326 22.6609 40.7944L30.8336 45.9508C31.0862 46.1102 31.4219 46.0373 31.5838 45.788L36.8156 37.7241C38.4968 35.0837 36.0227 31.75 32.9949 32.5377C32.9457 32.1646 32.9534 31.7881 33.0186 31.4312C36.8691 30.6979 39.8776 34.9325 37.7384 38.2922L31.6205 47.7217L22.0701 41.696C21.1136 41.0812 20.4527 40.198 20.1586 39.1419C20.0789 38.8559 19.7797 38.6879 19.4903 38.7665C19.2008 38.8452 19.0307 39.1408 19.1103 39.4268C19.476 40.7402 20.2944 41.8362 21.4811 42.599L31.4927 48.9155C31.7442 49.0743 32.0804 49.0033 32.2429 48.7528L36.076 42.8446L40.1564 48.2733C40.3357 48.5118 40.6759 48.5605 40.9162 48.3848L43.806 46.2721L53.1668 39.4284C58.1864 35.6929 56.1836 27.7698 49.9302 26.8517C49.6331 26.8084 49.3567 27.0106 49.3126 27.304ZM30.9613 44.7569L23.2509 39.8923C21.5002 38.761 21.9089 35.9965 24.0953 35.5662C25.1815 35.3529 26.0615 36.1346 26.9093 36.8877C27.1302 37.0839 27.3489 37.2782 27.5686 37.4524C28.6622 38.3874 30.3587 38.0154 30.9477 36.7106C31.0259 36.5391 31.0896 36.3986 31.1425 36.2811L33.9967 40.0784L30.9613 44.7569ZM35.8854 37.1673C35.9659 37.0461 36.7356 35.8874 35.8674 34.582C35.2842 33.7049 34.2494 33.332 33.2861 33.5736C33.4805 34.0032 33.6437 34.2171 34.2685 35.0356C34.6248 35.5024 35.1311 36.1657 35.8787 37.1776C35.8789 37.177 35.8812 37.1735 35.8854 37.1673Z" fill="#535C7D"/>
<path fill-rule="evenodd" clip-rule="evenodd" d="M35.6117 37.5826C35.6916 37.4641 36.4549 36.3317 35.5939 35.0559C35.0156 34.1988 33.9894 33.8343 33.0341 34.0705C33.2268 34.4902 33.3887 34.6993 34.0083 35.4993C34.3616 35.9554 34.8637 36.6037 35.6051 37.5927C35.6053 37.5921 35.6076 37.5886 35.6117 37.5826ZM23.0823 40.2458L30.7286 45L33.7387 40.4277L30.9083 36.7165C30.8558 36.8313 30.7926 36.9686 30.7151 37.1362C30.131 38.4115 28.4486 38.7751 27.3641 37.8613C27.1463 37.691 26.9294 37.5011 26.7103 37.3093C25.8695 36.5733 24.9969 35.8094 23.9197 36.0179C21.7515 36.4383 21.3462 39.1401 23.0823 40.2458Z" fill="#FFBD4C"/>
<circle cx="60.7767" cy="25.8171" r="2.00343" fill="white"/>
<circle cx="65.5472" cy="20.2839" r="2.76711" fill="white"/>
<circle cx="58.7728" cy="19.0432" r="0.763187" fill="white"/>
</svg>
